<svg viewBox="0 0 512 512" xmlns="http://www.w3.org/2000/svg"><path d="M448 0H224c-35.3 0-64 28.65-64 64v224c0 35.35 28.65 64 64 64h224c35.35 0 64-28.65 64-64V64c0-35.35-28.7-64-64-64zm16 288c0 8.822-7.178 16-16 16H224c-8.8 0-16-7.2-16-16V64c0-8.822 7.178-16 16-16h224c8.822 0 16 7.178 16 16v224zM304 448c0 8.822-7.178 16-16 16H64c-8.822 0-16-7.178-16-16V224c0-8.822 7.178-16 16-16h64v-48H64c-35.35 0-64 28.7-64 64v224c0 35.35 28.65 64 64 64h224c35.35 0 64-28.65 64-64v-64h-48v64z" fill="#ffffff" class="fill-000000"></path></svg>